# xmcd CD database file
#
# Track frame offsets:
#	150
#	11720
#	27137
#	49377
#	64727
#	79150
#	90700
#	108330
#	136207
#
# Disc length: 2029 seconds
#
# Revision: 0
# Processed by: cddbd v1.4PL0 Copyright (c) Steve Scherf et al.
# Submitted via: CDex 1.50Beta6
#
DISCID=7007eb09
DTITLE=Hubert Laws - Crying Song
DYEAR=1900
DGENRE=Jazz
TTITLE0=La Jean
TTITLE1=Love Is Blue/Sing A Rainbow
TTITLE2=Crying Song
TTITLE3=Listen To The Band
TTITLE4=I've Gotta Get A Message To You
TTITLE5=Feelin' Alright?
TTITLE6=Cymbaline
TTITLE7=How Long Will It Be
TTITLE8=Let It Be
EXTD=
EXTT0=
EXTT1=
EXTT2=
EXTT3=
EXTT4=
EXTT5=
EXTT6=
EXTT7=
EXTT8=
PLAYORDER=
